<svg width="3837" height="1249" viewBox="0 0 3837 1249" fill="none" xmlns="http://www.w3.org/2000/svg">
<rect width="3836.21" height="1249" fill="#F2E7D2"/>
<mask id="mask0_420_82" style="mask-type:alpha" maskUnits="userSpaceOnUse" x="0" y="0" width="3837" height="1249">
<rect width="3836.21" height="1249" fill="#AE8FBA"/>
</mask>
<g mask="url(#mask0_420_82)">
<ellipse cx="513.354" cy="793.055" rx="84.3414" ry="84.3413" transform="rotate(42.5297 513.354 793.055)" fill="#F79EB1" fill-opacity="0.2"/>
<ellipse cx="686.24" cy="891.555" rx="94.8841" ry="94.884" transform="rotate(42.5297 686.24 891.555)" fill="#F79EB1" fill-opacity="0.2"/>
<ellipse cx="769.587" cy="1093.91" rx="94.8841" ry="94.884" transform="rotate(42.5297 769.587 1093.91)" fill="#F79EB1" fill-opacity="0.2"/>
<ellipse cx="683.904" cy="1287.13" rx="84.3414" ry="84.3413" transform="rotate(42.5297 683.904 1287.13)" fill="#F79EB1" fill-opacity="0.2"/>
<path d="M491.837 1309.7C399.287 1347.97 349.645 1258.27 307.6 1156.57C265.555 1054.87 228.499 934.871 321.049 896.608C413.599 858.345 600.708 916.309 642.753 1018.01C684.799 1119.7 584.387 1271.44 491.837 1309.7Z" fill="#F79EB1" fill-opacity="0.2"/>
<ellipse cx="367" cy="-113.133" rx="82.2566" ry="82.2565" transform="rotate(44.1425 367 -113.133)" fill="#F79EB1" fill-opacity="0.2"/>
<ellipse cx="532.841" cy="-12.3631" rx="92.5386" ry="92.5385" transform="rotate(44.1425 532.841 -12.3631)" fill="#F79EB1" fill-opacity="0.2"/>
<ellipse cx="608.542" cy="187.193" rx="92.5386" ry="92.5385" transform="rotate(44.1425 608.542 187.193)" fill="#F79EB1" fill-opacity="0.2"/>
<ellipse cx="519.707" cy="373.216" rx="82.2566" ry="82.2565" transform="rotate(44.1425 519.707 373.216)" fill="#F79EB1" fill-opacity="0.2"/>
<path d="M331.841 389.956C240.564 424.718 194.63 335.908 156.432 235.609C118.234 135.311 85.4022 17.305 176.679 -17.4574C267.956 -52.2198 448.777 9.42517 486.975 109.724C525.173 210.022 423.118 355.194 331.841 389.956Z" fill="#F79EB1" fill-opacity="0.2"/>
<ellipse cx="1576.55" cy="626.918" rx="96.2704" ry="96.2704" transform="rotate(66.5897 1576.55 626.918)" fill="#F79EB1" fill-opacity="0.2"/>
<ellipse cx="1742.7" cy="810.032" rx="108.304" ry="108.304" transform="rotate(66.5897 1742.7 810.032)" fill="#F79EB1" fill-opacity="0.2"/>
<ellipse cx="1703.61" cy="1059.71" rx="108.304" ry="108.304" transform="rotate(66.5897 1703.61 1059.71)" fill="#F79EB1" fill-opacity="0.2"/>
<ellipse cx="1524.39" cy="1221.23" rx="96.2704" ry="96.2704" transform="rotate(66.5897 1524.39 1221.23)" fill="#F79EB1" fill-opacity="0.2"/>
<path d="M1313.69 1155.4C1199.43 1152.21 1189.43 1035.62 1192.93 910.055C1196.43 784.493 1213.66 642.175 1327.92 645.363C1442.19 648.551 1610.24 796.038 1606.73 921.6C1603.23 1047.16 1427.96 1158.59 1313.69 1155.4Z" fill="#F79EB1" fill-opacity="0.2"/>
<ellipse cx="3178.12" cy="162.993" rx="96.2704" ry="96.2703" transform="rotate(94.1687 3178.12 162.993)" fill="#F79EB1" fill-opacity="0.2"/>
<ellipse cx="3212.43" cy="387.499" rx="108.304" ry="108.304" transform="rotate(94.1687 3212.43 387.499)" fill="#F79EB1" fill-opacity="0.2"/>
<ellipse cx="3090.37" cy="605.45" rx="108.304" ry="108.304" transform="rotate(94.1687 3090.37 605.45)" fill="#F79EB1" fill-opacity="0.2"/>
<ellipse cx="2824.94" cy="665.634" rx="96.2704" ry="96.2703" transform="rotate(94.1687 2824.94 665.634)" fill="#F79EB1" fill-opacity="0.2"/>
<path d="M2668.67 509.727C2568.86 453.999 2613.98 346.025 2675.21 236.352C2736.45 126.679 2817.6 8.50518 2917.41 64.2339C3017.22 119.963 3097.89 328.491 3036.65 438.164C2975.42 547.837 2768.48 565.456 2668.67 509.727Z" fill="#F79EB1" fill-opacity="0.2"/>
<ellipse cx="3783.37" cy="207.409" rx="49.991" ry="49.991" transform="rotate(79.083 3783.37 207.409)" fill="#F79EB1" fill-opacity="0.2"/>
<ellipse cx="3830.91" cy="315.338" rx="56.2399" ry="56.2398" transform="rotate(79.083 3830.91 315.338)" fill="#F79EB1" fill-opacity="0.2"/>
<ellipse cx="3799.17" cy="441.101" rx="56.2399" ry="56.2398" transform="rotate(79.083 3799.17 441.101)" fill="#F79EB1" fill-opacity="0.2"/>
<ellipse cx="3690.16" cy="502.862" rx="49.991" ry="49.991" transform="rotate(79.083 3690.16 502.862)" fill="#F79EB1" fill-opacity="0.2"/>
<path d="M3590.74 445.81C3533.16 431.357 3541.19 371.124 3557.07 307.86C3572.95 244.596 3597.67 174.378 3655.25 188.83C3712.82 203.283 3781.45 296.933 3765.57 360.197C3749.68 423.461 3648.31 460.262 3590.74 445.81Z" fill="#F79EB1" fill-opacity="0.2"/>
<ellipse cx="2328.74" cy="794.77" rx="49.9911" ry="49.9909" transform="rotate(168.696 2328.74 794.77)" fill="#F79EB1" fill-opacity="0.2"/>
<ellipse cx="2189.35" cy="843.038" rx="56.24" ry="56.2398" transform="rotate(168.696 2189.35 843.038)" fill="#F79EB1" fill-opacity="0.2"/>
<ellipse cx="2063.36" cy="812.144" rx="56.24" ry="56.2398" transform="rotate(168.696 2063.36 812.144)" fill="#F79EB1" fill-opacity="0.2"/>
<ellipse cx="2000.88" cy="703.565" rx="49.9911" ry="49.9909" transform="rotate(168.696 2000.88 703.565)" fill="#F79EB1" fill-opacity="0.2"/>
<path d="M2057.25 603.756C2071.32 546.087 2131.6 553.708 2194.97 569.162C2258.34 584.616 2328.73 608.859 2314.66 666.529C2300.6 724.199 2207.41 793.456 2144.04 778.003C2080.67 762.549 2043.19 661.426 2057.25 603.756Z" fill="#F79EB1" fill-opacity="0.2"/>
<ellipse cx="1301.95" cy="-48.8393" rx="71.0913" ry="71.0913" transform="rotate(78.975 1301.95 -48.8393)" fill="#F79EB1" fill-opacity="0.2"/>
<ellipse cx="1369.85" cy="104.517" rx="79.9778" ry="79.9777" transform="rotate(78.975 1369.85 104.517)" fill="#F79EB1" fill-opacity="0.2"/>
<ellipse cx="1325.04" cy="283.456" rx="79.9778" ry="79.9777" transform="rotate(78.975 1325.04 283.456)" fill="#F79EB1" fill-opacity="0.2"/>
<ellipse cx="1145.46" cy="371.566" rx="71.0914" ry="71.0913" transform="rotate(78.975 1145.46 371.566)" fill="#F79EB1" fill-opacity="0.2"/>
<path d="M1003.92 290.701C922.011 270.303 933.267 184.625 955.681 94.6157C978.095 4.60647 1013.06 -95.3153 1094.97 -74.9171C1176.88 -54.5189 1274.73 78.4748 1252.31 168.484C1229.9 258.493 1085.84 311.099 1003.92 290.701Z" fill="#F79EB1" fill-opacity="0.2"/>
<ellipse cx="2453.42" cy="142.162" rx="74.7329" ry="74.7328" transform="rotate(160.522 2453.42 142.162)" fill="#F79EB1" fill-opacity="0.2"/>
<ellipse cx="2304.45" cy="236.466" rx="84.0744" ry="84.0744" transform="rotate(160.522 2304.45 236.466)" fill="#F79EB1" fill-opacity="0.2"/>
<ellipse cx="2111.47" cy="217.529" rx="84.0744" ry="84.0744" transform="rotate(160.522 2111.47 217.529)" fill="#F79EB1" fill-opacity="0.2"/>
<ellipse cx="1995.92" cy="70.1284" rx="74.7329" ry="74.7328" transform="rotate(160.522 1995.92 70.1284)" fill="#F79EB1" fill-opacity="0.2"/>
<path d="M2058.14 -89.5382C2066.69 -177.864 2157.52 -179.4 2254.57 -170.002C2351.63 -160.605 2460.93 -139.691 2452.38 -51.3655C2443.82 36.9601 2320.66 159.25 2223.6 149.853C2126.55 140.455 2049.58 -1.21267 2058.14 -89.5382Z" fill="#F79EB1" fill-opacity="0.2"/>
<ellipse cx="2543.18" cy="1244.84" rx="70.8877" ry="70.8874" transform="rotate(-171.654 2543.18 1244.84)" fill="#F79EB1" fill-opacity="0.2"/>
<ellipse cx="2515.02" cy="1089.45" rx="63.0113" ry="63.011" transform="rotate(-171.654 2515.02 1089.45)" fill="#F79EB1" fill-opacity="0.2"/>
<path d="M2619.74 998.659C2660.88 936.163 2729.21 970.762 2797.89 1015.96C2866.56 1061.17 2939.83 1119.78 2898.69 1182.27C2857.56 1244.77 2717.59 1287.49 2648.91 1242.28C2580.24 1197.08 2578.61 1061.16 2619.74 998.659Z" fill="#F79EB1" fill-opacity="0.2"/>
<ellipse cx="3481.41" cy="1314.62" rx="75.4666" ry="75.4666" transform="rotate(-147.595 3481.41 1314.62)" fill="#F79EB1" fill-opacity="0.2"/>
<ellipse cx="3387.86" cy="1167.83" rx="75.4666" ry="75.4666" transform="rotate(-147.595 3387.86 1167.83)" fill="#F79EB1" fill-opacity="0.2"/>
<ellipse cx="3427.93" cy="1004.56" rx="67.0814" ry="67.0814" transform="rotate(-147.595 3427.93 1004.56)" fill="#F79EB1" fill-opacity="0.2"/>
<path d="M3569.14 961.75C3636.25 918.851 3687.66 982.143 3734.8 1055.89C3781.94 1129.64 3827.73 1218.42 3760.61 1261.31C3693.5 1304.21 3538.9 1284.99 3491.76 1211.24C3444.62 1137.49 3502.02 1004.65 3569.14 961.75Z" fill="#F79EB1" fill-opacity="0.2"/>
</g>
</svg>
