<svg width="1244" height="449" viewBox="0 0 1244 449" fill="none" xmlns="http://www.w3.org/2000/svg">
<g clip-path="url(#clip0_1521_614)">
<rect width="1244" height="449" fill="#473469"/>
<ellipse cx="-16.4993" cy="472.128" rx="24.4111" ry="24.4113" transform="rotate(-16.0732 -16.4993 472.128)" fill="#F5F5F5" fill-opacity="0.1"/>
<ellipse cx="158.007" cy="437.838" rx="25.3957" ry="25.3956" transform="rotate(6.37401 158.007 437.838)" fill="#F5F5F5" fill-opacity="0.1"/>
<ellipse cx="217.534" cy="431.073" rx="28.5702" ry="28.57" transform="rotate(6.37401 217.534 431.073)" fill="#F5F5F5" fill-opacity="0.1"/>
<ellipse cx="273.744" cy="465.46" rx="28.5702" ry="28.57" transform="rotate(6.37401 273.744 465.46)" fill="#F5F5F5" fill-opacity="0.1"/>
<path d="M244.555 567.267C228.852 593.01 200.848 580.021 172.56 562.766C144.271 545.511 113.945 522.919 129.648 497.176C145.351 471.432 201.138 452.285 229.426 469.54C257.714 486.796 260.258 541.523 244.555 567.267Z" fill="#F5F5F5" fill-opacity="0.1"/>
<ellipse cx="75.5359" cy="-26.1499" rx="25.3957" ry="25.3956" transform="rotate(33.953 75.5359 -26.1499)" fill="#F5F5F5" fill-opacity="0.1"/>
<ellipse cx="131.435" cy="-4.58665" rx="28.5701" ry="28.5701" transform="rotate(33.953 131.435 -4.58665)" fill="#F5F5F5" fill-opacity="0.1"/>
<ellipse cx="165.337" cy="51.9173" rx="28.5701" ry="28.5701" transform="rotate(33.953 165.337 51.9173)" fill="#F5F5F5" fill-opacity="0.1"/>
<ellipse cx="141.764" cy="117.387" rx="25.3957" ry="25.3956" transform="rotate(33.953 141.764 117.387)" fill="#F5F5F5" fill-opacity="0.1"/>
<path d="M85.5916 132.735C59.7541 148.283 40.9458 123.805 23.8606 95.4141C6.77534 67.0229 -9.64625 32.9579 16.1913 17.4095C42.0288 1.86114 100.341 10.7173 117.426 39.1085C134.512 67.4997 111.429 117.187 85.5916 132.735Z" fill="#F5F5F5" fill-opacity="0.1"/>
<ellipse cx="-11.312" cy="230.318" rx="13.1874" ry="13.1873" transform="rotate(18.8673 -11.312 230.318)" fill="#F5F5F5" fill-opacity="0.1"/>
<ellipse cx="19.6279" cy="233.575" rx="14.8358" ry="14.8358" transform="rotate(18.8673 19.6279 233.575)" fill="#F5F5F5" fill-opacity="0.1"/>
<ellipse cx="44.2631" cy="257.323" rx="14.8358" ry="14.8358" transform="rotate(18.8673 44.2631 257.323)" fill="#F5F5F5" fill-opacity="0.1"/>
<ellipse cx="44.1189" cy="290.372" rx="13.1874" ry="13.1873" transform="rotate(18.8673 44.1189 290.372)" fill="#F5F5F5" fill-opacity="0.1"/>
<path d="M18.0289 305.659C7.17582 316.946 -5.5625 307.215 -17.9658 295.29C-30.369 283.364 -43.2064 268.504 -32.3533 257.216C-21.5002 245.928 8.93354 242.488 21.3368 254.414C33.7401 266.34 28.882 294.371 18.0289 305.659Z" fill="#F5F5F5" fill-opacity="0.1"/>
<ellipse cx="431.336" cy="198.187" rx="13.1874" ry="13.1873" transform="rotate(108.481 431.336 198.187)" fill="#F5F5F5" fill-opacity="0.1"/>
<ellipse cx="428.288" cy="229.148" rx="14.8358" ry="14.8358" transform="rotate(108.481 428.288 229.148)" fill="#F5F5F5" fill-opacity="0.1"/>
<ellipse cx="404.706" cy="253.942" rx="14.8358" ry="14.8358" transform="rotate(108.481 404.706 253.942)" fill="#F5F5F5" fill-opacity="0.1"/>
<ellipse cx="371.658" cy="254.02" rx="13.1874" ry="13.1873" transform="rotate(108.481 371.658 254.02)" fill="#F5F5F5" fill-opacity="0.1"/>
<path d="M356.196 228.034C344.836 217.257 354.48 204.454 366.322 191.97C378.164 179.487 392.937 166.55 404.298 177.326C415.658 188.103 419.304 218.513 407.462 230.996C395.62 243.48 367.557 238.811 356.196 228.034Z" fill="#F5F5F5" fill-opacity="0.1"/>
<ellipse cx="163.249" cy="225.123" rx="18.7535" ry="18.7535" transform="rotate(18.7593 163.249 225.123)" fill="#F5F5F5" fill-opacity="0.1"/>
<ellipse cx="213.995" cy="225.58" rx="21.0977" ry="21.0977" transform="rotate(18.7593 213.995 225.58)" fill="#F5F5F5" fill-opacity="0.1"/>
<ellipse cx="249.092" cy="259.286" rx="21.0977" ry="21.0977" transform="rotate(18.7593 249.092 259.286)" fill="#F5F5F5" fill-opacity="0.1"/>
<ellipse cx="242.235" cy="310.376" rx="18.7535" ry="18.7535" transform="rotate(18.7593 242.235 310.376)" fill="#F5F5F5" fill-opacity="0.1"/>
<path d="M205.176 332.184C189.772 348.265 171.631 334.461 153.961 317.535C136.29 300.609 117.995 279.511 133.399 263.43C148.802 247.349 192.072 242.375 209.743 259.301C227.413 276.227 220.58 316.103 205.176 332.184Z" fill="#F5F5F5" fill-opacity="0.1"/>
<ellipse cx="401.115" cy="15.9752" rx="19.7141" ry="19.7142" transform="rotate(100.306 401.115 15.9752)" fill="#F5F5F5" fill-opacity="0.1"/>
<ellipse cx="396.448" cy="66.5295" rx="22.1783" ry="22.1785" transform="rotate(100.306 396.448 66.5295)" fill="#F5F5F5" fill-opacity="0.1"/>
<ellipse cx="366.823" cy="108.231" rx="22.1783" ry="22.1785" transform="rotate(100.306 366.823 108.231)" fill="#F5F5F5" fill-opacity="0.1"/>
<ellipse cx="317.936" cy="115.371" rx="19.7141" ry="19.7142" transform="rotate(100.306 317.936 115.371)" fill="#F5F5F5" fill-opacity="0.1"/>
<path d="M289.532 80.2048C270.43 66.673 281.98 45.677 296.85 24.6879C311.719 3.69876 330.83 -18.585 349.931 -5.05318C369.033 8.47869 380.891 52.702 366.022 73.6911C351.153 94.6802 308.633 93.7367 289.532 80.2048Z" fill="#F5F5F5" fill-opacity="0.1"/>
<ellipse cx="597.342" cy="275.729" rx="16.622" ry="16.622" transform="rotate(128.13 597.342 275.729)" fill="#F5F5F5" fill-opacity="0.1"/>
<ellipse cx="580.6" cy="311.19" rx="18.6998" ry="18.6997" transform="rotate(128.13 580.6 311.19)" fill="#F5F5F5" fill-opacity="0.1"/>
<ellipse cx="535.36" cy="334.719" rx="18.6998" ry="18.6997" transform="rotate(128.13 535.36 334.719)" fill="#F5F5F5" fill-opacity="0.1"/>
<ellipse cx="496.098" cy="320.804" rx="16.622" ry="16.622" transform="rotate(128.13 496.098 320.804)" fill="#F5F5F5" fill-opacity="0.1"/>
<path d="M489.032 284.931C480.114 267.323 496.989 256.212 516.337 246.413C535.685 236.613 558.705 227.518 567.623 245.125C576.541 262.733 567.98 300.376 548.632 310.175C529.284 319.975 497.95 302.538 489.032 284.931Z" fill="#F5F5F5" fill-opacity="0.1"/>
<ellipse cx="506.682" cy="463.129" rx="17.6957" ry="17.6958" transform="rotate(152.19 506.682 463.129)" fill="#F5F5F5" fill-opacity="0.1"/>
<ellipse cx="391.783" cy="465.133" rx="17.6957" ry="17.6958" transform="rotate(152.19 391.783 465.133)" fill="#F5F5F5" fill-opacity="0.1"/>
<path d="M400.484 427.193C399.456 406.206 420.683 402.729 443.745 401.601C466.806 400.472 493.132 401.621 494.159 422.609C495.186 443.596 470.526 476.473 447.464 477.602C424.403 478.73 401.511 448.18 400.484 427.193Z" fill="#F5F5F5" fill-opacity="0.1"/>
<ellipse cx="25.03" cy="25.0299" rx="25.03" ry="25.0299" transform="matrix(-0.952736 -0.3038 -0.3038 0.952736 1148.95 449.951)" fill="#F5F5F5" fill-opacity="0.1"/>
<ellipse cx="25.03" cy="25.0299" rx="25.03" ry="25.0299" transform="matrix(-0.952736 -0.3038 -0.3038 0.952736 1091.7 457.384)" fill="#F5F5F5" fill-opacity="0.1"/>
<ellipse cx="21.6988" cy="21.6989" rx="21.6988" ry="21.6989" transform="matrix(-0.960909 -0.276866 -0.276866 0.960909 1288.44 296.045)" fill="#F5F5F5" fill-opacity="0.1"/>
<ellipse cx="24.4112" cy="24.4112" rx="24.4112" ry="24.4112" transform="matrix(-0.960909 -0.276866 -0.276866 0.960909 1246.99 269.426)" fill="#F5F5F5" fill-opacity="0.1"/>
<ellipse cx="24.4112" cy="24.4112" rx="24.4112" ry="24.4112" transform="matrix(-0.960909 -0.276866 -0.276866 0.960909 1191.39 278.244)" fill="#F5F5F5" fill-opacity="0.1"/>
<ellipse cx="21.6988" cy="21.6989" rx="21.6988" ry="21.6989" transform="matrix(-0.960909 -0.276866 -0.276866 0.960909 1157.08 324.813)" fill="#F5F5F5" fill-opacity="0.1"/>
<path d="M1151.01 384.861C1155.01 410.314 1181.36 409.193 1209.33 404.796C1237.3 400.398 1268.62 392.452 1264.61 366.999C1260.61 341.546 1222.8 308.225 1194.84 312.623C1166.87 317.02 1147 359.408 1151.01 384.861Z" fill="#F5F5F5" fill-opacity="0.1"/>
<ellipse cx="25.3956" cy="25.3957" rx="25.3956" ry="25.3957" transform="matrix(-0.993818 0.111018 0.111018 0.993818 1064.69 223.777)" fill="#F5F5F5" fill-opacity="0.1"/>
<ellipse cx="28.5701" cy="28.5701" rx="28.5701" ry="28.5701" transform="matrix(-0.993818 0.111018 0.111018 0.993818 1007.97 213.504)" fill="#F5F5F5" fill-opacity="0.1"/>
<ellipse cx="28.5701" cy="28.5701" rx="28.5701" ry="28.5701" transform="matrix(-0.993818 0.111018 0.111018 0.993818 951.756 247.892)" fill="#F5F5F5" fill-opacity="0.1"/>
<ellipse cx="25.3956" cy="25.3957" rx="25.3956" ry="25.3957" transform="matrix(-0.993818 0.111018 0.111018 0.993818 935.459 313.596)" fill="#F5F5F5" fill-opacity="0.1"/>
<path d="M955.721 381.264C971.424 407.008 999.428 394.019 1027.72 376.763C1056 359.508 1086.33 336.916 1070.63 311.173C1054.92 285.429 999.138 266.282 970.85 283.537C942.562 300.792 940.018 355.52 955.721 381.264Z" fill="#F5F5F5" fill-opacity="0.1"/>
<ellipse cx="13.1874" cy="13.1873" rx="13.1874" ry="13.1873" transform="matrix(-0.94627 0.323378 0.323378 0.94627 1219.8 27.5713)" fill="#F5F5F5" fill-opacity="0.1"/>
<ellipse cx="14.8358" cy="14.8358" rx="14.8358" ry="14.8358" transform="matrix(-0.94627 0.323378 0.323378 0.94627 1189.89 28.7352)" fill="#F5F5F5" fill-opacity="0.1"/>
<ellipse cx="14.8358" cy="14.8358" rx="14.8358" ry="14.8358" transform="matrix(-0.94627 0.323378 0.323378 0.94627 1165.26 52.4834)" fill="#F5F5F5" fill-opacity="0.1"/>
<ellipse cx="13.1874" cy="13.1873" rx="13.1874" ry="13.1873" transform="matrix(-0.94627 0.323378 0.323378 0.94627 1164.37 87.6251)" fill="#F5F5F5" fill-opacity="0.1"/>
<path d="M1182.25 119.655C1193.1 130.942 1205.84 121.212 1218.24 109.286C1230.65 97.36 1243.48 82.4997 1232.63 71.2122C1221.78 59.9246 1191.34 56.4841 1178.94 68.4099C1166.54 80.3357 1171.4 108.367 1182.25 119.655Z" fill="#F5F5F5" fill-opacity="0.1"/>
<ellipse cx="13.1874" cy="13.1873" rx="13.1874" ry="13.1873" transform="matrix(0.316986 0.94843 0.94843 -0.316986 752.269 3.85498)" fill="#F5F5F5" fill-opacity="0.1"/>
<ellipse cx="14.8358" cy="14.8357" rx="14.8358" ry="14.8357" transform="matrix(0.316986 0.94843 0.94843 -0.316986 753.23 33.7749)" fill="#F5F5F5" fill-opacity="0.1"/>
<ellipse cx="14.8358" cy="14.8357" rx="14.8358" ry="14.8357" transform="matrix(0.316986 0.94843 0.94843 -0.316986 776.812 58.569)" fill="#F5F5F5" fill-opacity="0.1"/>
<ellipse cx="13.1874" cy="13.1873" rx="13.1874" ry="13.1873" transform="matrix(0.316986 0.94843 0.94843 -0.316986 811.947 59.6882)" fill="#F5F5F5" fill-opacity="0.1"/>
<path d="M844.096 42.0294C855.456 31.2527 845.812 18.449 833.97 5.96554C822.128 -6.51792 807.355 -19.4553 795.994 -8.67856C784.634 2.09814 780.988 32.5079 792.83 44.9914C804.672 57.4749 832.735 52.8061 844.096 42.0294Z" fill="#F5F5F5" fill-opacity="0.1"/>
<ellipse cx="18.7535" cy="18.7535" rx="18.7535" ry="18.7535" transform="matrix(-0.946878 0.321594 0.321594 0.946878 1048.76 15.3307)" fill="#F5F5F5" fill-opacity="0.1"/>
<ellipse cx="21.0977" cy="21.0977" rx="21.0977" ry="21.0977" transform="matrix(-0.946878 0.321594 0.321594 0.946878 999.475 12.8141)" fill="#F5F5F5" fill-opacity="0.1"/>
<ellipse cx="21.0977" cy="21.0977" rx="21.0977" ry="21.0977" transform="matrix(-0.946878 0.321594 0.321594 0.946878 964.378 46.5199)" fill="#F5F5F5" fill-opacity="0.1"/>
<ellipse cx="18.7535" cy="18.7535" rx="18.7535" ry="18.7535" transform="matrix(-0.946878 0.321594 0.321594 0.946878 969.769 100.584)" fill="#F5F5F5" fill-opacity="0.1"/>
<path d="M995.102 146.181C1010.51 162.261 1028.65 148.458 1046.32 131.531C1063.99 114.605 1082.28 93.5072 1066.88 77.4263C1051.48 61.3453 1008.21 56.371 990.535 73.2972C972.865 90.2233 979.699 130.1 995.102 146.181Z" fill="#F5F5F5" fill-opacity="0.1"/>
<ellipse cx="16.622" cy="16.622" rx="16.622" ry="16.622" transform="matrix(0.617446 0.786613 0.786613 -0.617446 579.632 86.9075)" fill="#F5F5F5" fill-opacity="0.1"/>
<ellipse cx="18.6998" cy="18.6997" rx="18.6998" ry="18.6997" transform="matrix(0.617446 0.786613 0.786613 -0.617446 593.457 122.017)" fill="#F5F5F5" fill-opacity="0.1"/>
<ellipse cx="18.6998" cy="18.6997" rx="18.6998" ry="18.6997" transform="matrix(0.617446 0.786613 0.786613 -0.617446 638.696 145.546)" fill="#F5F5F5" fill-opacity="0.1"/>
<ellipse cx="16.622" cy="16.622" rx="16.622" ry="16.622" transform="matrix(0.617446 0.786613 0.786613 -0.617446 680.876 131.982)" fill="#F5F5F5" fill-opacity="0.1"/>
<path d="M711.28 98.9212C720.198 81.3137 703.323 70.2029 683.975 60.4034C664.627 50.6039 641.607 41.5081 632.689 59.1156C623.771 76.7232 632.332 114.366 651.68 124.166C671.028 133.965 702.362 116.529 711.28 98.9212Z" fill="#F5F5F5" fill-opacity="0.1"/>
<ellipse cx="17.6957" cy="17.6958" rx="17.6957" ry="17.6958" transform="matrix(0.884498 0.466545 0.466545 -0.884498 669.724 284.518)" fill="#F5F5F5" fill-opacity="0.1"/>
<ellipse cx="19.9077" cy="19.9077" rx="19.9077" ry="19.9077" transform="matrix(0.884498 0.466545 0.466545 -0.884498 703.643 315.831)" fill="#F5F5F5" fill-opacity="0.1"/>
<ellipse cx="19.9077" cy="19.9077" rx="19.9077" ry="19.9077" transform="matrix(0.884498 0.466545 0.466545 -0.884498 749.506 318.015)" fill="#F5F5F5" fill-opacity="0.1"/>
<ellipse cx="17.6957" cy="17.6958" rx="17.6957" ry="17.6958" transform="matrix(0.884498 0.466545 0.466545 -0.884498 784.623 286.522)" fill="#F5F5F5" fill-opacity="0.1"/>
<path d="M799.83 241.186C800.857 220.199 779.63 216.723 756.568 215.594C733.507 214.466 707.182 215.615 706.154 236.602C705.127 257.589 729.788 290.466 752.849 291.595C775.91 292.724 798.803 262.173 799.83 241.186Z" fill="#F5F5F5" fill-opacity="0.1"/>
</g>
<defs>
<clipPath id="clip0_1521_614">
<rect width="1244" height="449" fill="white"/>
</clipPath>
</defs>
</svg>
