<svg width="3837" height="1249" viewBox="0 0 3837 1249" fill="none" xmlns="http://www.w3.org/2000/svg">
<rect width="3836.21" height="1249" fill="#F79EB1"/>
<mask id="mask0_420_16" style="mask-type:alpha" maskUnits="userSpaceOnUse" x="0" y="0" width="3837" height="1249">
<rect width="3836.21" height="1249" fill="#AE8FBA"/>
</mask>
<g mask="url(#mask0_420_16)">
<ellipse cx="513.354" cy="793.056" rx="84.3414" ry="84.3413" transform="rotate(42.5297 513.354 793.056)" fill="#F2E7D2" fill-opacity="0.25"/>
<ellipse cx="686.241" cy="891.556" rx="94.8841" ry="94.884" transform="rotate(42.5297 686.241 891.556)" fill="#F2E7D2" fill-opacity="0.25"/>
<ellipse cx="769.587" cy="1093.91" rx="94.8841" ry="94.884" transform="rotate(42.5297 769.587 1093.91)" fill="#F2E7D2" fill-opacity="0.25"/>
<ellipse cx="683.904" cy="1287.13" rx="84.3414" ry="84.3413" transform="rotate(42.5297 683.904 1287.13)" fill="#F2E7D2" fill-opacity="0.25"/>
<path d="M491.837 1309.71C399.287 1347.97 349.645 1258.27 307.599 1156.57C265.554 1054.87 228.499 934.872 321.049 896.609C413.599 858.346 600.708 916.31 642.753 1018.01C684.798 1119.71 584.387 1271.44 491.837 1309.71Z" fill="#F2E7D2" fill-opacity="0.25"/>
<ellipse cx="367" cy="-113.133" rx="82.2566" ry="82.2565" transform="rotate(44.1425 367 -113.133)" fill="#F2E7D2" fill-opacity="0.25"/>
<ellipse cx="532.842" cy="-12.3631" rx="92.5386" ry="92.5385" transform="rotate(44.1425 532.842 -12.3631)" fill="#F2E7D2" fill-opacity="0.25"/>
<ellipse cx="608.542" cy="187.193" rx="92.5386" ry="92.5385" transform="rotate(44.1425 608.542 187.193)" fill="#F2E7D2" fill-opacity="0.25"/>
<ellipse cx="519.707" cy="373.216" rx="82.2566" ry="82.2565" transform="rotate(44.1425 519.707 373.216)" fill="#F2E7D2" fill-opacity="0.25"/>
<path d="M331.842 389.957C240.565 424.719 194.632 335.909 156.433 235.61C118.235 135.312 85.4035 17.3059 176.68 -17.4564C267.957 -52.2188 448.778 9.42614 486.976 109.725C525.174 210.023 423.119 355.195 331.842 389.957Z" fill="#F2E7D2" fill-opacity="0.25"/>
<ellipse cx="1576.55" cy="626.917" rx="96.2704" ry="96.2704" transform="rotate(66.5897 1576.55 626.917)" fill="#F2E7D2" fill-opacity="0.25"/>
<ellipse cx="1742.7" cy="810.032" rx="108.304" ry="108.304" transform="rotate(66.5897 1742.7 810.032)" fill="#F2E7D2" fill-opacity="0.25"/>
<ellipse cx="1703.61" cy="1059.71" rx="108.304" ry="108.304" transform="rotate(66.5897 1703.61 1059.71)" fill="#F2E7D2" fill-opacity="0.25"/>
<ellipse cx="1524.39" cy="1221.23" rx="96.2704" ry="96.2704" transform="rotate(66.5897 1524.39 1221.23)" fill="#F2E7D2" fill-opacity="0.25"/>
<path d="M1313.69 1155.4C1199.43 1152.21 1189.43 1035.62 1192.93 910.053C1196.43 784.491 1213.66 642.173 1327.92 645.361C1442.19 648.549 1610.24 796.036 1606.73 921.598C1603.23 1047.16 1427.96 1158.58 1313.69 1155.4Z" fill="#F2E7D2" fill-opacity="0.25"/>
<ellipse cx="3178.12" cy="162.995" rx="96.2704" ry="96.2703" transform="rotate(94.1687 3178.12 162.995)" fill="#F2E7D2" fill-opacity="0.25"/>
<ellipse cx="3212.43" cy="387.501" rx="108.304" ry="108.304" transform="rotate(94.1687 3212.43 387.501)" fill="#F2E7D2" fill-opacity="0.25"/>
<ellipse cx="3090.37" cy="605.452" rx="108.304" ry="108.304" transform="rotate(94.1687 3090.37 605.452)" fill="#F2E7D2" fill-opacity="0.25"/>
<ellipse cx="2824.94" cy="665.635" rx="96.2704" ry="96.2703" transform="rotate(94.1687 2824.94 665.635)" fill="#F2E7D2" fill-opacity="0.25"/>
<path d="M2668.67 509.728C2568.86 454 2613.98 346.026 2675.22 236.353C2736.45 126.68 2817.61 8.50614 2917.41 64.2349C3017.22 119.964 3097.89 328.492 3036.65 438.165C2975.42 547.838 2768.48 565.457 2668.67 509.728Z" fill="#F2E7D2" fill-opacity="0.25"/>
<ellipse cx="3783.37" cy="207.408" rx="49.991" ry="49.991" transform="rotate(79.083 3783.37 207.408)" fill="#F2E7D2" fill-opacity="0.25"/>
<ellipse cx="3830.91" cy="315.338" rx="56.2399" ry="56.2398" transform="rotate(79.083 3830.91 315.338)" fill="#F2E7D2" fill-opacity="0.25"/>
<ellipse cx="3799.17" cy="441.101" rx="56.2399" ry="56.2398" transform="rotate(79.083 3799.17 441.101)" fill="#F2E7D2" fill-opacity="0.25"/>
<ellipse cx="3690.16" cy="502.861" rx="49.991" ry="49.991" transform="rotate(79.083 3690.16 502.861)" fill="#F2E7D2" fill-opacity="0.25"/>
<path d="M3590.74 445.81C3533.16 431.357 3541.19 371.124 3557.07 307.86C3572.95 244.596 3597.67 174.378 3655.25 188.83C3712.82 203.283 3781.45 296.933 3765.57 360.197C3749.69 423.461 3648.31 460.262 3590.74 445.81Z" fill="#F2E7D2" fill-opacity="0.25"/>
<ellipse cx="2328.74" cy="794.77" rx="49.9911" ry="49.9909" transform="rotate(168.696 2328.74 794.77)" fill="#F2E7D2" fill-opacity="0.25"/>
<ellipse cx="2189.35" cy="843.038" rx="56.24" ry="56.2398" transform="rotate(168.696 2189.35 843.038)" fill="#F2E7D2" fill-opacity="0.25"/>
<ellipse cx="2063.36" cy="812.144" rx="56.24" ry="56.2398" transform="rotate(168.696 2063.36 812.144)" fill="#F2E7D2" fill-opacity="0.25"/>
<ellipse cx="2000.88" cy="703.565" rx="49.9911" ry="49.9909" transform="rotate(168.696 2000.88 703.565)" fill="#F2E7D2" fill-opacity="0.25"/>
<path d="M2057.25 603.758C2071.32 546.089 2131.6 553.71 2194.97 569.164C2258.34 584.617 2328.73 608.861 2314.66 666.531C2300.6 724.201 2207.41 793.458 2144.04 778.005C2080.67 762.551 2043.19 661.428 2057.25 603.758Z" fill="#F2E7D2" fill-opacity="0.25"/>
<ellipse cx="1301.95" cy="-48.8393" rx="71.0913" ry="71.0913" transform="rotate(78.975 1301.95 -48.8393)" fill="#F2E7D2" fill-opacity="0.25"/>
<ellipse cx="1369.85" cy="104.517" rx="79.9778" ry="79.9777" transform="rotate(78.975 1369.85 104.517)" fill="#F2E7D2" fill-opacity="0.25"/>
<ellipse cx="1325.04" cy="283.455" rx="79.9778" ry="79.9777" transform="rotate(78.975 1325.04 283.455)" fill="#F2E7D2" fill-opacity="0.25"/>
<ellipse cx="1145.46" cy="371.566" rx="71.0914" ry="71.0913" transform="rotate(78.975 1145.46 371.566)" fill="#F2E7D2" fill-opacity="0.25"/>
<path d="M1003.93 290.7C922.012 270.302 933.268 184.624 955.682 94.6147C978.096 4.60551 1013.06 -95.3163 1094.97 -74.9181C1176.88 -54.5199 1274.73 78.4738 1252.32 168.483C1229.9 258.492 1085.84 311.098 1003.93 290.7Z" fill="#F2E7D2" fill-opacity="0.25"/>
<ellipse cx="2453.42" cy="142.162" rx="74.7329" ry="74.7328" transform="rotate(160.522 2453.42 142.162)" fill="#F2E7D2" fill-opacity="0.25"/>
<ellipse cx="2304.45" cy="236.466" rx="84.0744" ry="84.0744" transform="rotate(160.522 2304.45 236.466)" fill="#F2E7D2" fill-opacity="0.25"/>
<ellipse cx="2111.47" cy="217.529" rx="84.0744" ry="84.0744" transform="rotate(160.522 2111.47 217.529)" fill="#F2E7D2" fill-opacity="0.25"/>
<ellipse cx="1995.92" cy="70.1284" rx="74.7329" ry="74.7328" transform="rotate(160.522 1995.92 70.1284)" fill="#F2E7D2" fill-opacity="0.25"/>
<path d="M2058.14 -89.5373C2066.69 -177.863 2157.52 -179.399 2254.57 -170.001C2351.63 -160.604 2460.93 -139.69 2452.38 -51.3645C2443.82 36.9611 2320.66 159.251 2223.6 149.854C2126.55 140.456 2049.58 -1.2117 2058.14 -89.5373Z" fill="#F2E7D2" fill-opacity="0.25"/>
<ellipse cx="2543.18" cy="1244.84" rx="70.8877" ry="70.8874" transform="rotate(-171.654 2543.18 1244.84)" fill="#F2E7D2" fill-opacity="0.25"/>
<ellipse cx="2515.02" cy="1089.45" rx="63.0113" ry="63.011" transform="rotate(-171.654 2515.02 1089.45)" fill="#F2E7D2" fill-opacity="0.25"/>
<path d="M2619.74 998.658C2660.88 936.162 2729.21 970.761 2797.89 1015.96C2866.56 1061.17 2939.83 1119.78 2898.7 1182.27C2857.56 1244.77 2717.59 1287.49 2648.92 1242.28C2580.24 1197.08 2578.61 1061.15 2619.74 998.658Z" fill="#F2E7D2" fill-opacity="0.25"/>
<ellipse cx="3481.41" cy="1314.62" rx="75.4666" ry="75.4666" transform="rotate(-147.595 3481.41 1314.62)" fill="#F2E7D2" fill-opacity="0.25"/>
<ellipse cx="3387.86" cy="1167.83" rx="75.4666" ry="75.4666" transform="rotate(-147.595 3387.86 1167.83)" fill="#F2E7D2" fill-opacity="0.25"/>
<ellipse cx="3427.93" cy="1004.56" rx="67.0814" ry="67.0814" transform="rotate(-147.595 3427.93 1004.56)" fill="#F2E7D2" fill-opacity="0.25"/>
<path d="M3569.14 961.751C3636.25 918.852 3687.66 982.144 3734.8 1055.89C3781.94 1129.64 3827.73 1218.42 3760.62 1261.32C3693.5 1304.21 3538.9 1284.99 3491.76 1211.24C3444.62 1137.49 3502.02 1004.65 3569.14 961.751Z" fill="#F2E7D2" fill-opacity="0.25"/>
</g>
</svg>
